<svg width="87" height="87" viewBox="0 0 87 87" fill="none" xmlns="http://www.w3.org/2000/svg">
<path d="M70.6875 59.8125C68.7674 59.8219 66.8866 60.3579 65.25 61.3622L56.8491 52.9341C58.8039 50.1766 59.8538 46.88 59.8538 43.5C59.8538 40.12 58.8039 36.8234 56.8491 34.0659L65.25 25.6378C66.8866 26.6421 68.7674 27.1781 70.6875 27.1875C72.8384 27.1875 74.9409 26.5497 76.7293 25.3547C78.5177 24.1598 79.9116 22.4613 80.7347 20.4742C81.5578 18.487 81.7732 16.3004 81.3535 14.1909C80.9339 12.0814 79.8982 10.1436 78.3773 8.62272C76.8564 7.10182 74.9187 6.06608 72.8091 5.64646C70.6996 5.22685 68.513 5.44221 66.5258 6.26531C64.5387 7.08842 62.8402 8.48229 61.6453 10.2707C60.4503 12.0591 59.8125 14.1616 59.8125 16.3125C59.8219 18.2326 60.3579 20.1134 61.3622 21.75L52.9341 30.1509C50.1766 28.1962 46.88 27.1462 43.5 27.1462C40.12 27.1462 36.8234 28.1962 34.0659 30.1509L25.6378 21.75C26.6421 20.1134 27.1781 18.2326 27.1875 16.3125C27.1875 14.1616 26.5497 12.0591 25.3547 10.2707C24.1598 8.48229 22.4613 7.08842 20.4742 6.26531C18.487 5.44221 16.3004 5.22685 14.1909 5.64646C12.0814 6.06608 10.1436 7.10182 8.62272 8.62272C7.10182 10.1436 6.06608 12.0814 5.64646 14.1909C5.22685 16.3004 5.44221 18.487 6.26531 20.4742C7.08842 22.4613 8.48229 24.1598 10.2707 25.3547C12.0591 26.5497 14.1616 27.1875 16.3125 27.1875C18.2326 27.1781 20.1134 26.6421 21.75 25.6378L30.1509 34.0659C28.1962 36.8234 27.1462 40.12 27.1462 43.5C27.1462 46.88 28.1962 50.1766 30.1509 52.9341L21.75 61.3622C20.1134 60.3579 18.2326 59.8219 16.3125 59.8125C14.1616 59.8125 12.0591 60.4503 10.2707 61.6453C8.48229 62.8402 7.08842 64.5387 6.26531 66.5258C5.44221 68.513 5.22685 70.6996 5.64646 72.8091C6.06608 74.9187 7.10182 76.8564 8.62272 78.3773C10.1436 79.8982 12.0814 80.9339 14.1909 81.3535C16.3004 81.7732 18.487 81.5578 20.4742 80.7347C22.4613 79.9116 24.1598 78.5177 25.3547 76.7293C26.5497 74.9409 27.1875 72.8384 27.1875 70.6875C27.1781 68.7674 26.6421 66.8866 25.6378 65.25L34.0659 56.8491C36.8234 58.8039 40.12 59.8538 43.5 59.8538C46.88 59.8538 50.1766 58.8039 52.9341 56.8491L61.3622 65.25C60.3579 66.8866 59.8219 68.7674 59.8125 70.6875C59.8125 72.8384 60.4503 74.9409 61.6453 76.7293C62.8402 78.5177 64.5387 79.9116 66.5258 80.7347C68.513 81.5578 70.6996 81.7732 72.8091 81.3535C74.9187 80.9339 76.8564 79.8982 78.3773 78.3773C79.8982 76.8564 80.9339 74.9187 81.3535 72.8091C81.7732 70.6996 81.5578 68.513 80.7347 66.5258C79.9116 64.5387 78.5177 62.8402 76.7293 61.6453C74.9409 60.4503 72.8384 59.8125 70.6875 59.8125ZM70.6875 10.875C71.7629 10.875 72.8142 11.1939 73.7084 11.7914C74.6026 12.3889 75.2995 13.2381 75.7111 14.2317C76.1227 15.2252 76.2303 16.3185 76.0205 17.3733C75.8107 18.4281 75.2928 19.397 74.5324 20.1574C73.7719 20.9178 72.8031 21.4357 71.7483 21.6455C70.6935 21.8553 69.6002 21.7477 68.6067 21.3361C67.6131 20.9245 66.7639 20.2276 66.1664 19.3334C65.5689 18.4392 65.25 17.3879 65.25 16.3125C65.25 14.8704 65.8229 13.4873 66.8426 12.4676C67.8623 11.4479 69.2454 10.875 70.6875 10.875V10.875ZM10.875 16.3125C10.875 15.2371 11.1939 14.1858 11.7914 13.2916C12.3889 12.3974 13.2381 11.7005 14.2317 11.2889C15.2252 10.8774 16.3185 10.7697 17.3733 10.9795C18.4281 11.1893 19.397 11.7072 20.1574 12.4676C20.9178 13.2281 21.4357 14.1969 21.6455 15.2517C21.8553 16.3065 21.7477 17.3998 21.3361 18.3933C20.9245 19.3869 20.2276 20.2361 19.3334 20.8336C18.4392 21.4311 17.3879 21.75 16.3125 21.75C14.8704 21.75 13.4873 21.1771 12.4676 20.1574C11.4479 19.1377 10.875 17.7546 10.875 16.3125V16.3125ZM16.3125 76.125C15.2371 76.125 14.1858 75.8061 13.2916 75.2086C12.3974 74.6111 11.7005 73.7619 11.2889 72.7683C10.8774 71.7748 10.7697 70.6815 10.9795 69.6267C11.1893 68.5719 11.7072 67.6031 12.4676 66.8426C13.2281 66.0822 14.1969 65.5643 15.2517 65.3545C16.3065 65.1447 17.3998 65.2524 18.3933 65.6639C19.3869 66.0755 20.2361 66.7724 20.8336 67.6666C21.4311 68.5608 21.75 69.6121 21.75 70.6875C21.75 72.1296 21.1771 73.5127 20.1574 74.5324C19.1377 75.5521 17.7546 76.125 16.3125 76.125ZM43.5 54.375C41.3491 54.375 39.2466 53.7372 37.4582 52.5422C35.6698 51.3473 34.2759 49.6488 33.4528 47.6617C32.6297 45.6745 32.4144 43.4879 32.834 41.3784C33.2536 39.2689 34.2893 37.3311 35.8102 35.8102C37.3311 34.2893 39.2689 33.2536 41.3784 32.834C43.4879 32.4144 45.6745 32.6297 47.6617 33.4528C49.6488 34.2759 51.3473 35.6698 52.5422 37.4582C53.7372 39.2466 54.375 41.3491 54.375 43.5C54.375 46.3842 53.2292 49.1503 51.1898 51.1898C49.1503 53.2292 46.3842 54.375 43.5 54.375ZM70.6875 76.125C69.6121 76.125 68.5608 75.8061 67.6666 75.2086C66.7724 74.6111 66.0755 73.7619 65.6639 72.7683C65.2524 71.7748 65.1447 70.6815 65.3545 69.6267C65.5643 68.5719 66.0822 67.6031 66.8426 66.8426C67.6031 66.0822 68.5719 65.5643 69.6267 65.3545C70.6815 65.1447 71.7748 65.2524 72.7683 65.6639C73.7619 66.0755 74.6111 66.7724 75.2086 67.6666C75.8061 68.5608 76.125 69.6121 76.125 70.6875C76.125 72.1296 75.5521 73.5127 74.5324 74.5324C73.5127 75.5521 72.1296 76.125 70.6875 76.125Z" fill="white"/>
</svg>
